<?xml version="1.0" encoding="UTF-8" standalone="no"?>
<svg
   xmlns:dc="http://purl.org/dc/elements/1.1/"
   xmlns:cc="http://creativecommons.org/ns#"
   xmlns:rdf="http://www.w3.org/1999/02/22-rdf-syntax-ns#"
   xmlns:svg="http://www.w3.org/2000/svg"
   xmlns="http://www.w3.org/2000/svg"
   viewBox="0 0 504.09012 517.00171"
   height="517.00171"
   width="504.09012"
   xml:space="preserve"
   id="svg330"
   version="1.1"><metadata
     id="metadata336"><rdf:RDF><cc:Work
         rdf:about=""><dc:format>image/svg+xml</dc:format><dc:type
           rdf:resource="http://purl.org/dc/dcmitype/StillImage" /><dc:title></dc:title></cc:Work></rdf:RDF></metadata><defs
     id="defs334"><clipPath
       id="clipPath342"
       clipPathUnits="userSpaceOnUse"><path
         id="path340"
         d="M 0,0 H 612 V 792 H 0 Z" /></clipPath><clipPath
       id="clipPath352"
       clipPathUnits="userSpaceOnUse"><path
         style="clip-rule:evenodd"
         id="path350"
         d="M 0,792 H 612.24 V -0.239967 H 0 Z" /></clipPath><clipPath
       id="clipPath358"
       clipPathUnits="userSpaceOnUse"><path
         id="path356"
         d="M 0,0 H 612 V 792 H 0 Z" /></clipPath><clipPath
       id="clipPath416"
       clipPathUnits="userSpaceOnUse"><path
         style="clip-rule:evenodd"
         id="path414"
         d="M 28,764 H 585 V 27.58898 H 28 Z" /></clipPath><clipPath
       id="clipPath422"
       clipPathUnits="userSpaceOnUse"><path
         id="path420"
         d="M 0,0 H 612 V 792 H 0 Z" /></clipPath><clipPath
       id="clipPath434"
       clipPathUnits="userSpaceOnUse"><path
         style="clip-rule:evenodd"
         id="path432"
         d="M 28,764 H 585 V 27.58898 H 28 Z" /></clipPath><clipPath
       id="clipPath440"
       clipPathUnits="userSpaceOnUse"><path
         id="path438"
         d="M 0,0 H 612 V 792 H 0 Z" /></clipPath></defs><g
     clip-path="url(#clipPath342)"
     transform="matrix(1.3333333,0,0,-1.3333333,-155.17307,781.52067)"
     id="g338"><g
       id="g344" /><g
       id="g346"><g
         clip-path="url(#clipPath352)"
         id="g348"><g
           clip-path="url(#clipPath358)"
           id="g354"><path
             id="path360"
             style="fill:#ffffff;fill-opacity:1;fill-rule:nonzero;stroke:none"
             d="M 0,792 H 815.9999 V -263.9999 H 0 Z" /><g
             transform="matrix(1,0,0,-1,0,792)"
             id="g362"><text
               id="text366"
               style="font-variant:normal;font-weight:normal;font-size:8px;font-family:Times;-inkscape-font-specification:Times-Roman;writing-mode:lr-tb;fill:#000000;fill-opacity:1;fill-rule:nonzero;stroke:none"
               transform="translate(26.45312,22)"><tspan
                 id="tspan364"
                 y="0"
                 x="0 4 6.2224002 10.2224 14.2224 16.444799 20.444799 24.444799 28.444799">8/28/2018</tspan></text>
</g><g
             transform="matrix(1,0,0,-1,0,792)"
             id="g368"><text
               id="text372"
               style="font-variant:normal;font-weight:normal;font-size:8px;font-family:Times;-inkscape-font-specification:Times-Roman;writing-mode:lr-tb;fill:#000000;fill-opacity:1;fill-rule:nonzero;stroke:none"
               transform="translate(234.1563,22)"><tspan
                 id="tspan370"
                 y="0"
                 x="0 4 6.2224002 8.4448004 12.4448 15.5584 17.7808 20.003201 22.225599 28.003201 33.7808">https://www</tspan></text>
</g><g
             transform="matrix(1,0,0,-1,0,792)"
             id="g374"><text
               id="text378"
               style="font-variant:normal;font-weight:normal;font-size:8px;font-family:Times;-inkscape-font-specification:Times-Roman;writing-mode:lr-tb;fill:#000000;fill-opacity:1;fill-rule:nonzero;stroke:none"
               transform="translate(273.1953,22)"><tspan
                 id="tspan376"
                 y="0"
                 x="0 2 4.2224002 7.7728 11.7728 15.7728 19.3232 22.4368 24.4368 27.9872 31.9872 38.209599 40.431999 44.431999 48.431999 50.431999 54.431999 56.6544 58.876801 62.4272 66.4272 70.4272 73.9776 77.091202 81.091202 84.641602 88.641602 92.641602 96.641602 100.6416 102.6416 106.6416 110.6416 114.6416 118.6416 122.6416 124.864 127.0864 130.6368 132.85921 135.0816 139.0816 143.0816 146.632 150.632 152.632 156.632 158.8544 165.0768">.janvas.com/v6.1/janvas_app_6.1_public/index.html</tspan></text>
</g><g
             transform="matrix(1,0,0,-1,0,792)"
             id="g380"><text
               id="text384"
               style="font-variant:normal;font-weight:normal;font-size:8px;font-family:Times;-inkscape-font-specification:Times-Roman;writing-mode:lr-tb;fill:#000000;fill-opacity:1;fill-rule:nonzero;stroke:none"
               transform="translate(26.45312,775)"><tspan
                 id="tspan382"
                 y="0"
                 x="0 4 6.2224002 8.4448004 12.4448 15.5584 17.7808 20.003201 22.225599 28.003201 33.7808">https://www</tspan></text>
</g><g
             transform="matrix(1,0,0,-1,0,792)"
             id="g386"><text
               id="text390"
               style="font-variant:normal;font-weight:normal;font-size:8px;font-family:Times;-inkscape-font-specification:Times-Roman;writing-mode:lr-tb;fill:#000000;fill-opacity:1;fill-rule:nonzero;stroke:none"
               transform="translate(65.49219,775)"><tspan
                 id="tspan388"
                 y="0"
                 x="0 2 4.2224002 7.7728 11.7728 15.7728 19.3232 22.4368 24.4368 27.9872 31.9872 38.209599 40.431999 44.431999 48.431999 50.431999 54.431999 56.6544 58.876801 62.4272 66.4272 70.4272 73.9776 77.091202 81.091202 84.641602 88.641602 92.641602 96.641602 100.6416 102.6416 106.6416 110.6416 114.6416 118.6416 122.6416 124.864 127.0864 130.6368 132.85921 135.0816 139.0816 143.0816 146.632 150.632 152.632 156.632 158.8544 165.0768">.janvas.com/v6.1/janvas_app_6.1_public/index.html</tspan></text>
</g><g
             transform="matrix(1,0,0,-1,0,792)"
             id="g392"><text
               id="text396"
               style="font-variant:normal;font-weight:normal;font-size:8px;font-family:Times;-inkscape-font-specification:Times-Roman;writing-mode:lr-tb;fill:#000000;fill-opacity:1;fill-rule:nonzero;stroke:none"
               transform="translate(575.3125,775)"><tspan
                 id="tspan394"
                 y="0"
                 x="0">1</tspan></text>
</g><g
             transform="matrix(1,0,0,-1,0,792)"
             id="g398"><text
               id="text402"
               style="font-variant:normal;font-weight:normal;font-size:8px;font-family:Times;-inkscape-font-specification:Times-Roman;writing-mode:lr-tb;fill:#000000;fill-opacity:1;fill-rule:nonzero;stroke:none"
               transform="translate(579.3125,775)"><tspan
                 id="tspan400"
                 y="0"
                 x="0">/</tspan></text>
</g><g
             transform="matrix(1,0,0,-1,0,792)"
             id="g404"><text
               id="text408"
               style="font-variant:normal;font-weight:normal;font-size:8px;font-family:Times;-inkscape-font-specification:Times-Roman;writing-mode:lr-tb;fill:#000000;fill-opacity:1;fill-rule:nonzero;stroke:none"
               transform="translate(581.5312,775)"><tspan
                 id="tspan406"
                 y="0"
                 x="0">1</tspan></text>
</g></g></g></g><g
       id="g410"><g
         clip-path="url(#clipPath416)"
         id="g412"><g
           clip-path="url(#clipPath422)"
           id="g418"><path
             id="path424"
             style="fill:#ffffff;fill-opacity:1;fill-rule:nonzero;stroke:none"
             d="M 28,764 H 585 V 27.58901 H 28 Z" /><path
             id="path426"
             style="fill:#ffffff;fill-opacity:1;fill-rule:nonzero;stroke:none"
             d="M 28,764 H 585 V 27.58901 H 28 Z" /></g></g></g><g
       id="g428"><g
         clip-path="url(#clipPath434)"
         id="g430"><g
           clip-path="url(#clipPath440)"
           id="g436"><g
             transform="matrix(11.14,0,0,-11.14,84.33045,606.776)"
             id="g442"><path
               id="path444"
               style="fill:none;stroke:#000000;stroke-width:2.70000005;stroke-linecap:round;stroke-linejoin:round;stroke-miterlimit:4;stroke-dasharray:none;stroke-opacity:1"
               d="M 4.943406,3.939092 H 34.94341 V 33.93909 H 4.943406 Z" /></g><g
             transform="matrix(11.14,0,0,-11.14,50.51694,656.4986)"
             id="g446"><path
               id="path448"
               style="fill:none;stroke:#000000;stroke-width:2.70000005;stroke-linecap:round;stroke-linejoin:round;stroke-miterlimit:4;stroke-dasharray:none;stroke-opacity:1"
               d="M 7.978728,8.40252 H 37.97873 v 15 H 7.978728 Z" /></g><g
             transform="matrix(11.14,0,0,-11.14,15.70916,597.8093)"
             id="g450"><path
               id="path452"
               style="fill:none;stroke:#000000;stroke-width:2.70000005;stroke-linecap:round;stroke-linejoin:round;stroke-miterlimit:4;stroke-dasharray:none;stroke-opacity:1"
               d="m 26.10331,18.13419 h 7.5 v 7.5 h -7.5 z" /></g><g
             transform="matrix(11.14,0,0,-11.14,-60.87448,746.9111)"
             id="g454"><path
               id="path456"
               style="fill:none;stroke:#000000;stroke-width:2.70000005;stroke-linecap:round;stroke-linejoin:round;stroke-miterlimit:4;stroke-dasharray:none;stroke-opacity:1"
               d="m 25.47796,31.51854 h 7.5 v 15.00001 h -7.5 z" /></g></g></g></g></g></svg>